<svg width="32" height="32" viewBox="0 0 32 32" fill="none" xmlns="http://www.w3.org/2000/svg">
<path d="M23 2H28.25C28.7141 2 29.1592 2.18437 29.4874 2.51256C29.8156 2.84075 30 3.28587 30 3.75V28.25C30 28.7141 29.8156 29.1592 29.4874 29.4874C29.1592 29.8156 28.7141 30 28.25 30H23V2ZM23 2L16 9L9 2M9 2V30H3.75C3.28587 30 2.84075 29.8156 2.51256 29.4874C2.18437 29.1592 2 28.7141 2 28.25V3.75C2 3.28587 2.18437 2.84075 2.51256 2.51256C2.84075 2.18437 3.28587 2 3.75 2H9ZM2 6.375L16 19.5L30 6.375" stroke="black" stroke-width="3" stroke-linecap="round" stroke-linejoin="round"/>
</svg>
